<svg width="143" height="48" viewBox="0 0 143 48" fill="none" xmlns="http://www.w3.org/2000/svg">
<path d="M0 4C0 1.79086 1.79086 0 4 0H143V48H4C1.79086 48 0 46.2091 0 44V4Z" fill="#F2F2F2"/>
<path d="M20.72 24.682C20.72 22.474 21.098 20.836 21.854 19.768C22.61 18.688 23.696 18.148 25.112 18.148C26.624 18.148 27.734 18.682 28.442 19.75C29.15 20.806 29.504 22.45 29.504 24.682C29.504 26.902 29.12 28.552 28.352 29.632C27.596 30.712 26.51 31.252 25.094 31.252C23.594 31.252 22.49 30.688 21.782 29.56C21.074 28.42 20.72 26.794 20.72 24.682ZM23.06 24.682C23.06 26.146 23.216 27.28 23.528 28.084C23.852 28.876 24.38 29.272 25.112 29.272C25.82 29.272 26.336 28.906 26.66 28.174C26.996 27.442 27.164 26.278 27.164 24.682C27.164 23.23 27.008 22.108 26.696 21.316C26.384 20.524 25.85 20.128 25.094 20.128C24.374 20.128 23.852 20.5 23.528 21.244C23.216 21.988 23.06 23.134 23.06 24.682Z" fill="black"/>
<g opacity="0.3">
<path d="M107.341 26.5C107.341 24.976 107.677 23.812 108.349 23.008C109.033 22.192 110.011 21.784 111.283 21.784C111.955 21.784 112.537 21.898 113.029 22.126C113.533 22.342 113.947 22.66 114.271 23.08C114.595 23.488 114.835 23.986 114.991 24.574C115.147 25.15 115.225 25.792 115.225 26.5C115.225 28.024 114.883 29.194 114.199 30.01C113.527 30.814 112.555 31.216 111.283 31.216C110.611 31.216 110.023 31.108 109.519 30.892C109.027 30.664 108.619 30.346 108.295 29.938C107.971 29.518 107.731 29.02 107.575 28.444C107.419 27.856 107.341 27.208 107.341 26.5ZM108.835 26.5C108.835 26.956 108.877 27.394 108.961 27.814C109.057 28.234 109.201 28.6 109.393 28.912C109.585 29.224 109.837 29.476 110.149 29.668C110.461 29.86 110.839 29.956 111.283 29.956C112.915 29.968 113.731 28.816 113.731 26.5C113.731 26.032 113.683 25.588 113.587 25.168C113.503 24.748 113.365 24.382 113.173 24.07C112.981 23.758 112.729 23.512 112.417 23.332C112.105 23.14 111.727 23.044 111.283 23.044C109.651 23.032 108.835 24.184 108.835 26.5ZM122.956 23.26H120.13V31H118.69V23.26H115.864V22H122.956V23.26Z" fill="black"/>
</g>
</svg>
